<svg width="52" height="50" viewBox="0 0 52 50" fill="none" xmlns="http://www.w3.org/2000/svg">
<path d="M36.3856 5.55742C36.3856 6.44942 36.3766 7.34242 36.3886 8.23442C36.3966 8.82542 36.7216 9.14942 37.3136 9.16442C37.9076 9.17842 38.5026 9.17642 39.0976 9.16642C39.7506 9.15442 40.0686 8.83742 40.0716 8.18342C40.0786 6.43242 40.0786 4.68042 40.0716 2.92842C40.0686 2.28042 39.7496 1.95542 39.0966 1.93542C38.5186 1.91842 37.9396 1.91842 37.3616 1.93542C36.7116 1.95542 36.3936 2.28342 36.3876 2.93042C36.3786 3.80542 36.3846 4.68142 36.3856 5.55742ZM16.3196 5.55242C16.3196 4.69342 16.3286 3.83442 16.3166 2.97542C16.3076 2.27642 15.9766 1.94842 15.2746 1.93342C14.7136 1.92142 14.1516 1.91742 13.5896 1.93542C12.9686 1.95442 12.6186 2.27442 12.6126 2.88442C12.5956 4.66842 12.5946 6.45342 12.6126 8.23742C12.6196 8.85542 12.9646 9.15442 13.5976 9.16642C14.1426 9.17642 14.6876 9.17242 15.2326 9.16742C16.0036 9.16042 16.3116 8.85542 16.3176 8.08042C16.3256 7.23842 16.3196 6.39542 16.3196 5.55242ZM18.0136 6.43942C18.0136 7.04142 18.0186 7.60242 18.0126 8.16242C17.9936 9.76242 16.9256 10.8414 15.3366 10.8634C14.8066 10.8704 14.2776 10.8664 13.7476 10.8644C11.9606 10.8584 10.9156 9.81442 10.9076 8.02642C10.9056 7.50342 10.9076 6.97942 10.9076 6.43542C10.6946 6.42442 10.5486 6.40942 10.4026 6.40942C8.49961 6.40742 6.59761 6.40442 4.69461 6.40942C3.35361 6.41242 2.64561 7.12542 2.64561 8.46542C2.64361 10.9474 2.64461 13.4284 2.64461 15.9104V16.3944H50.0876V15.8804C50.0876 13.3994 50.0896 10.9174 50.0876 8.43642C50.0856 7.12242 49.3796 6.41242 48.0626 6.40942C46.1276 6.40442 44.1916 6.40742 42.2556 6.40942C42.0996 6.40942 41.9436 6.43342 41.7656 6.44842C41.7656 7.09942 41.7756 7.69442 41.7646 8.28842C41.7356 9.74442 40.6836 10.8134 39.2246 10.8594C38.5966 10.8784 37.9676 10.8724 37.3386 10.8624C35.7636 10.8364 34.7086 9.77042 34.6936 8.19542C34.6876 7.62042 34.6926 7.04542 34.6926 6.43942H18.0136ZM0.953613 39.2224C1.20161 38.8124 1.51861 38.5034 2.04061 38.6674C2.55261 38.8284 2.65261 39.2444 2.64961 39.7344C2.63761 41.6034 2.64161 43.4734 2.64561 45.3424C2.64861 46.5774 3.38061 47.3264 4.62161 47.3264C16.1016 47.3314 27.5826 47.3294 39.0636 47.3284C39.1776 47.3284 39.2916 47.3174 39.4586 47.3084C39.4686 47.1204 39.4866 46.9474 39.4866 46.7734C39.4886 44.7054 39.4856 42.6374 39.4886 40.5694C39.4916 38.4154 40.8306 37.0744 42.9886 37.0644C43.9476 37.0594 44.9076 37.0624 45.8666 37.0654C46.3016 37.0664 46.6526 37.2244 46.7986 37.6604C46.9886 38.2254 46.5916 38.7424 45.9446 38.7534C44.9856 38.7704 44.0256 38.7574 43.0666 38.7594C41.7586 38.7634 41.1836 39.3334 41.1826 40.6294C41.1806 42.2674 41.1826 43.9054 41.1826 45.5424V46.1154C41.3556 45.9794 41.4586 45.9114 41.5446 45.8284C44.1866 43.2764 46.8236 40.7214 49.4686 38.1734C49.8726 37.7844 50.0916 37.3434 50.0916 36.7734C50.0856 30.6854 50.0876 24.5984 50.0876 18.5104V18.1684H2.64461V18.7404C2.64461 22.2144 2.64261 25.6884 2.64661 29.1624C2.64661 29.6034 2.50761 29.9524 2.06661 30.0944C1.60661 30.2434 1.26261 30.0654 1.02761 29.6524C1.01361 29.6274 0.978613 29.6134 0.953613 29.5934V7.65542C0.972613 7.62842 0.999614 7.60442 1.00861 7.57442C1.58461 5.60142 2.76261 4.71142 4.80761 4.71042C6.66061 4.70942 8.51361 4.71042 10.3656 4.70842C10.5396 4.70842 10.7126 4.69242 10.9076 4.68242C10.9076 4.05742 10.8986 3.49542 10.9096 2.93442C10.9386 1.33942 12.0126 0.26442 13.6006 0.23642C14.1136 0.227421 14.6266 0.233421 15.1396 0.23542C16.9476 0.239422 18.0086 1.29742 18.0136 3.09942C18.0146 3.62342 18.0136 4.14642 18.0136 4.68142H34.6956C34.6956 4.01442 34.6816 3.37342 34.6986 2.73342C34.7316 1.50142 35.6116 0.463421 36.8336 0.303421C37.5336 0.211422 38.2516 0.237419 38.9616 0.237419C40.7086 0.238419 41.7606 1.30242 41.7666 3.05642C41.7686 3.59542 41.7676 4.13442 41.7676 4.71042H42.3846C44.2536 4.71042 46.1226 4.70442 47.9926 4.71542C48.3696 4.71742 48.7576 4.73942 49.1236 4.82742C50.7506 5.22042 51.7776 6.60442 51.7776 8.38342C51.7806 17.7624 51.7706 27.1424 51.7896 36.5214C51.7916 37.7294 51.3906 38.6844 50.5206 39.5154C47.6386 42.2704 44.7726 45.0404 41.9276 47.8334C41.0816 48.6634 40.1266 49.0354 38.9476 49.0344C27.5996 49.0194 16.2516 49.0254 4.90361 49.0254C4.73761 49.0254 4.57261 49.0284 4.40761 49.0214C2.72361 48.9414 1.46761 47.9214 1.04461 46.2974C1.02461 46.2204 0.984613 46.1474 0.953613 46.0724V39.2224Z" fill="#F5BD2D"/>
<path d="M0.953491 33.2666C1.21149 32.9086 1.49549 32.5896 2.00349 32.7306C2.41749 32.8456 2.63249 33.1326 2.64149 33.5606C2.64949 34.0046 2.63349 34.4486 2.64749 34.8926C2.66249 35.3596 2.62449 35.8056 2.12349 36.0076C1.60749 36.2166 1.25249 35.9366 0.953491 35.5496V33.2666Z" fill="#F5BD2D"/>
<path d="M29.1187 35.7086C29.1187 35.2126 29.0407 34.8016 28.8837 34.4746C28.7277 34.1496 28.5137 33.8906 28.2437 33.6996C27.9737 33.5076 27.6607 33.3736 27.3047 33.2956C26.9487 33.2166 26.5787 33.1776 26.1947 33.1776C25.8817 33.1776 25.4907 33.1996 25.0217 33.2426C24.5517 33.2846 24.1537 33.3416 23.8257 33.4116V34.6236C23.8257 35.5166 23.8937 36.2396 24.0287 36.7926C24.1637 37.3456 24.3487 37.7776 24.5837 38.0896C24.8187 38.4016 25.1027 38.6146 25.4377 38.7276C25.7717 38.8406 26.1307 38.8976 26.5147 38.8976C26.8707 38.8976 27.2087 38.8516 27.5287 38.7596C27.8487 38.6676 28.1267 38.5076 28.3607 38.2806C28.5957 38.0546 28.7807 37.7496 28.9157 37.3666C29.0507 36.9846 29.1187 36.5026 29.1187 35.9216V35.7086ZM32.0207 35.9316C32.0207 36.7276 31.8997 37.4506 31.6587 38.0976C31.4157 38.7446 31.0607 39.2996 30.5917 39.7616C30.1217 40.2246 29.5457 40.5836 28.8627 40.8396C28.1797 41.0956 27.3967 41.2236 26.5147 41.2236C25.7177 41.2236 24.9787 41.0956 24.2957 40.8396C23.6127 40.5836 23.0217 40.1886 22.5247 39.6556C22.0257 39.1216 21.6347 38.4386 21.3507 37.6066C21.0657 36.7746 20.9237 35.7816 20.9237 34.6296V32.1746C20.9237 30.8946 21.0477 29.7996 21.2977 28.8886C21.5457 27.9786 21.9197 27.2386 22.4177 26.6696C22.9157 26.1006 23.5307 25.6846 24.2637 25.4206C24.9967 25.1576 25.8537 25.0256 26.8347 25.0256C27.7737 25.0256 28.5777 25.0756 29.2467 25.1746C29.9147 25.2726 30.4277 25.3576 30.7827 25.4276C30.9397 25.4566 31.0607 25.5016 31.1457 25.5656C31.2317 25.6286 31.2737 25.7316 31.2737 25.8716V27.1826C31.2737 27.4806 31.1387 27.6296 30.8687 27.6296H30.7827C30.5837 27.6006 30.3247 27.5696 30.0047 27.5336C29.6837 27.4986 29.3427 27.4666 28.9797 27.4376C28.6167 27.4086 28.2467 27.3876 27.8697 27.3736C27.4937 27.3596 27.1477 27.3526 26.8347 27.3526C26.2947 27.3526 25.8357 27.4166 25.4587 27.5456C25.0817 27.6746 24.7757 27.8926 24.5407 28.1996C24.3057 28.5076 24.1317 28.9126 24.0187 29.4126C23.9037 29.9136 23.8397 30.5286 23.8257 31.2576C24.1677 31.1866 24.6017 31.1296 25.1277 31.0866C25.6547 31.0446 26.2087 31.0226 26.7927 31.0226C27.4887 31.0226 28.1507 31.1046 28.7777 31.2686C29.4027 31.4316 29.9577 31.6946 30.4417 32.0576C30.9247 32.4206 31.3097 32.9046 31.5937 33.5086C31.8787 34.1136 32.0207 34.8496 32.0207 35.7176V35.9316Z" fill="#F5BD2D"/>
</svg>
