<svg width="50" height="48" viewBox="0 0 50 48" fill="none" xmlns="http://www.w3.org/2000/svg">
    <path
        d="M0.233887 38.2574C0.475339 37.8574 0.784892 37.5565 1.2938 37.7163C1.7928 37.8735 1.88938 38.2784 1.8869 38.7551C1.87576 40.5765 1.87947 42.398 1.88319 44.2194C1.88567 45.4229 2.59888 46.1522 3.80861 46.1535C14.9946 46.1584 26.1807 46.1559 37.3667 46.1559C37.4782 46.1559 37.5884 46.1448 37.7518 46.1361C37.7617 45.9529 37.779 45.7832 37.779 45.6148C37.7815 43.6003 37.779 41.5857 37.7815 39.5711C37.784 37.4723 39.0891 36.166 41.1916 36.1561C42.1264 36.1512 43.0613 36.1536 43.9961 36.1561C44.4196 36.1574 44.7613 36.3109 44.9037 36.7368C45.0882 37.2866 44.7019 37.7906 44.0716 37.8017C43.1368 37.8178 42.2019 37.8054 41.2671 37.8079C39.993 37.8116 39.4333 38.3663 39.4321 39.6293C39.4308 41.2254 39.4321 42.8202 39.4321 44.4163V44.9734C39.6005 44.841 39.7007 44.7753 39.7862 44.6936C42.3604 42.2073 44.9297 39.7185 47.5065 37.2358C47.9002 36.857 48.1132 36.4261 48.1132 35.8713C48.1082 29.9403 48.1095 24.008 48.1095 18.0769C48.1095 17.9816 48.1095 17.885 48.1095 17.7439H1.88195C1.88195 17.9296 1.88195 18.1153 1.88195 18.3011C1.88195 21.6863 1.87947 25.0704 1.88443 28.4557C1.88443 28.8853 1.74946 29.2246 1.3198 29.3633C0.871567 29.5081 0.536011 29.3348 0.308179 28.9324C0.294559 28.9076 0.259889 28.894 0.236363 28.8742C0.236363 21.7495 0.236363 14.6236 0.236363 7.49888C0.254936 7.47287 0.280939 7.44935 0.289606 7.41963C0.850517 5.49792 1.99834 4.62993 3.99187 4.6287C5.79719 4.6287 7.6025 4.6287 9.40782 4.62746C9.57622 4.62746 9.74585 4.61136 9.9353 4.60146C9.9353 3.99225 9.92663 3.44496 9.93654 2.89767C9.96502 1.34371 11.0113 0.296182 12.5591 0.268941C13.0581 0.260274 13.5583 0.266465 14.0586 0.267703C15.8193 0.272656 16.8532 1.30285 16.8582 3.05864C16.8594 3.56878 16.8582 4.07893 16.8582 4.60022H33.1122C33.1122 3.95015 33.0986 3.32609 33.1147 2.70203C33.1469 1.5022 34.0037 0.490582 35.1949 0.334567C35.8771 0.245415 36.5767 0.270179 37.2689 0.271417C38.9714 0.271417 39.9967 1.3078 40.0016 3.01778C40.0029 3.54278 40.0016 4.06902 40.0016 4.6287C40.2518 4.6287 40.4276 4.6287 40.6034 4.6287C42.4248 4.6287 44.2462 4.6225 46.0676 4.63365C46.4354 4.63613 46.8143 4.65717 47.1697 4.74261C48.7546 5.12522 49.7563 6.47364 49.7563 8.20714C49.7588 17.3464 49.7489 26.4844 49.7674 35.6237C49.7699 36.8 49.3799 37.7299 48.5317 38.5409C45.7234 41.2241 42.9312 43.9247 40.1589 46.645C39.3342 47.4536 38.4043 47.8164 37.2553 47.8152C26.198 47.8015 15.142 47.8065 4.08473 47.8065C3.92377 47.8065 3.76156 47.8102 3.60183 47.8028C1.9612 47.7248 0.73784 46.7317 0.325514 45.1493C0.305703 45.0737 0.26608 45.0032 0.236363 44.9289C0.236363 42.7038 0.236363 40.48 0.236363 38.2549L0.233887 38.2574ZM16.8569 6.31638C16.8569 6.90206 16.8619 7.44811 16.8569 7.9954C16.8396 9.55431 15.7982 10.6043 14.2492 10.6266C13.7341 10.634 13.2178 10.6291 12.7015 10.6278C10.9605 10.6217 9.94149 9.60384 9.93406 7.86291C9.93159 7.35277 9.93406 6.84262 9.93406 6.31267C9.72728 6.30152 9.58488 6.28667 9.44125 6.28667C7.58764 6.28543 5.73404 6.28295 3.88043 6.28667C2.57411 6.29038 1.88443 6.98502 1.88319 8.2901C1.88195 10.7083 1.88319 13.1253 1.88319 15.5436C1.88319 15.6983 1.88319 15.8544 1.88319 16.0153H48.1095C48.1095 15.8296 48.1095 15.6723 48.1095 15.5151C48.1095 13.0968 48.1107 10.6799 48.1095 8.26162C48.1082 6.9813 47.4198 6.29038 46.137 6.28667C44.2512 6.28171 42.3654 6.28419 40.4796 6.28667C40.3273 6.28667 40.175 6.31019 40.0016 6.32505C40.0016 6.95902 40.0115 7.5385 40.0004 8.11798C39.9732 9.53698 38.9479 10.5783 37.5264 10.6229C36.9148 10.6415 36.3018 10.6365 35.6889 10.6266C34.1535 10.6018 33.1258 9.56298 33.111 8.0276C33.106 7.46792 33.111 6.90701 33.111 6.31762H16.8594L16.8569 6.31638ZM15.2064 5.45211C15.2064 4.61507 15.215 3.77804 15.2039 2.94101C15.1952 2.25999 14.8721 1.94053 14.1886 1.92567C13.6413 1.91453 13.094 1.91081 12.5467 1.92691C11.9412 1.94548 11.5995 2.25751 11.5945 2.85186C11.5772 4.59031 11.5772 6.32877 11.5945 8.06722C11.6007 8.66899 11.9375 8.96121 12.5541 8.97235C13.0853 8.98226 13.6165 8.97854 14.1477 8.97359C14.8981 8.96616 15.1977 8.66899 15.2051 7.91368C15.2126 7.09274 15.2064 6.27181 15.2064 5.45087V5.45211ZM34.7566 5.45706C34.7566 6.32629 34.7479 7.19552 34.759 8.06474C34.7665 8.64175 35.0834 8.95626 35.6592 8.97111C36.2387 8.98473 36.8182 8.9835 37.3977 8.97235C38.0329 8.96121 38.3437 8.65289 38.3461 8.01521C38.3536 6.30895 38.3536 4.60145 38.3461 2.8952C38.3437 2.26371 38.0329 1.94672 37.3964 1.92691C36.833 1.90958 36.2697 1.90958 35.7063 1.92691C35.0723 1.94672 34.7627 2.26618 34.7566 2.8952C34.7479 3.74832 34.7541 4.60145 34.7553 5.45459L34.7566 5.45706Z"
        fill="#F5BD2D" />
    <path
        d="M0.233887 32.4552C0.485244 32.106 0.761366 31.7952 1.25665 31.9327C1.66031 32.0454 1.86957 32.324 1.87824 32.7412C1.8869 33.1734 1.87081 33.6067 1.88443 34.0389C1.89929 34.4933 1.86214 34.9292 1.37428 35.126C0.871567 35.3291 0.524867 35.0567 0.233887 34.679V32.454V32.4552Z"
        fill="#F5BD2D" />
    <path
        d="M23.2584 37.1543V26.8436L20.1418 28.1859C20.0131 28.2342 19.9177 28.2577 19.8533 28.2577C19.6775 28.2577 19.5896 28.1537 19.5896 27.9457V25.2129C19.5896 25.0532 19.6701 24.9405 19.8298 24.8774L24.1747 22.8393C24.3196 22.7761 24.5041 22.7427 24.7294 22.7427H26.9C27.2059 22.7427 27.3582 22.895 27.3582 23.1983V37.153H30.5466C30.6741 37.153 30.7868 37.1964 30.8821 37.2843C30.9787 37.3722 31.0257 37.4799 31.0257 37.6087V40.0777C31.0257 40.2065 30.9787 40.3179 30.8821 40.4132C30.7855 40.5086 30.6741 40.5569 30.5466 40.5569H20.0688C19.94 40.5569 19.8286 40.5098 19.7332 40.4132C19.6379 40.3167 19.5896 40.2052 19.5896 40.0777V37.6087C19.5896 37.4799 19.6379 37.3722 19.7332 37.2843C19.8298 37.1964 19.9413 37.153 20.0688 37.153H23.2584V37.1543Z"
        fill="#F5BD2D" />
</svg>
    