<svg width="50" height="50" viewBox="0 0 50 50" fill="none" xmlns="http://www.w3.org/2000/svg">
<path d="M24.6099 3.09093C12.7319 3.09093 3.06786 12.7539 3.06786 24.6329C3.06786 36.5109 12.7319 46.1739 24.6099 46.1739C36.4879 46.1739 46.1519 36.5109 46.1519 24.6329C46.1519 12.7539 36.4879 3.09093 24.6099 3.09093ZM24.6099 49.0339C11.1549 49.0339 0.208862 38.0879 0.208862 24.6329C0.208862 11.1779 11.1549 0.230934 24.6099 0.230934C38.0649 0.230934 49.0109 11.1779 49.0109 24.6329C49.0109 38.0879 38.0649 49.0339 24.6099 49.0339Z" fill="#F5BD2D"/>
<path d="M11.467 35.7533C12.025 35.1953 12.931 35.1953 13.489 35.7533C14.047 36.3113 14.047 37.2173 13.489 37.7753C12.931 38.3333 12.025 38.3333 11.467 37.7753C10.909 37.2173 10.909 36.3113 11.467 35.7533Z" fill="#F5BD2D"/>
<path d="M35.7309 11.4894C36.2889 10.9314 37.1949 10.9314 37.7529 11.4894C38.3109 12.0474 38.3109 12.9534 37.7529 13.5114C37.1949 14.0694 36.2889 14.0694 35.7309 13.5114C35.1729 12.9534 35.1729 12.0474 35.7309 11.4894Z" fill="#F5BD2D"/>
<path d="M13.4888 11.4894C14.0468 12.0474 14.0468 12.9534 13.4888 13.5114C12.9308 14.0694 12.0248 14.0694 11.4668 13.5114C10.9088 12.9534 10.9088 12.0474 11.4668 11.4894C12.0248 10.9314 12.9308 10.9314 13.4888 11.4894Z" fill="#F5BD2D"/>
<path d="M37.7528 35.7533C38.3108 36.3113 38.3108 37.2173 37.7528 37.7753C37.1948 38.3333 36.2888 38.3333 35.7308 37.7753C35.1728 37.2173 35.1728 36.3113 35.7308 35.7533C36.2888 35.1953 37.1948 35.1953 37.7528 35.7533Z" fill="#F5BD2D"/>
<path d="M24.6098 11.7649C23.8198 11.7649 23.1798 11.1239 23.1798 10.3349V7.47489C23.1798 6.68589 23.8198 6.04589 24.6098 6.04589C25.3998 6.04589 26.0398 6.68589 26.0398 7.47489V10.3349C26.0398 11.1239 25.3998 11.7649 24.6098 11.7649Z" fill="#F5BD2D"/>
<path d="M24.6098 43.2192C23.8198 43.2192 23.1798 42.5792 23.1798 41.7892V38.9292C23.1798 38.1402 23.8198 37.5002 24.6098 37.5002C25.3998 37.5002 26.0398 38.1402 26.0398 38.9292V41.7892C26.0398 42.5792 25.3998 43.2192 24.6098 43.2192Z" fill="#F5BD2D"/>
<path d="M10.3122 26.0625H7.45319C6.66319 26.0625 6.02319 25.4215 6.02319 24.6325C6.02319 23.8435 6.66319 23.2025 7.45319 23.2025H10.3122C11.1022 23.2025 11.7422 23.8435 11.7422 24.6325C11.7422 25.4215 11.1022 26.0625 10.3122 26.0625Z" fill="#F5BD2D"/>
<path d="M41.767 26.0625H38.908C38.118 26.0625 37.478 25.4215 37.478 24.6325C37.478 23.8435 38.118 23.2025 38.908 23.2025H41.767C42.557 23.2025 43.197 23.8435 43.197 24.6325C43.197 25.4215 42.557 26.0625 41.767 26.0625Z" fill="#F5BD2D"/>
<path d="M33.1886 34.6411C32.8226 34.6411 32.4566 34.5011 32.1776 34.2221L23.5986 25.6441C23.3306 25.3761 23.1796 25.0121 23.1796 24.6331V16.0541C23.1796 15.2641 23.8206 14.6241 24.6096 14.6241C25.3996 14.6241 26.0396 15.2641 26.0396 16.0541V24.0401L34.1996 32.2001C34.7576 32.7581 34.7576 33.6641 34.1996 34.2221C33.9206 34.5011 33.5546 34.6411 33.1886 34.6411Z" fill="#F5BD2D"/>
</svg>
