<svg width="50" height="50" viewBox="0 0 50 50" fill="none" xmlns="http://www.w3.org/2000/svg">
<path d="M13.1369 9.97694C14.4769 9.98894 15.5599 8.93294 15.5879 7.58494C15.6169 6.24994 14.4959 5.10894 13.1589 5.10894C11.8389 5.10994 10.7359 6.21394 10.7289 7.53994C10.7229 8.87394 11.8009 9.96494 13.1369 9.97694ZM21.2639 35.1809C21.2659 33.8449 20.1859 32.7499 18.8569 32.7399C17.5189 32.7289 16.3899 33.8609 16.4059 35.1959C16.4209 36.5289 17.5159 37.6079 18.8489 37.6039C20.1929 37.5999 21.2619 36.5279 21.2639 35.1809ZM5.87491 37.6039C7.20291 37.5949 8.30091 36.4889 8.29191 35.1669C8.28291 33.8429 7.17891 32.7429 5.85691 32.7389C4.50891 32.7359 3.41491 33.8509 3.43291 35.2089C3.45091 36.5579 4.52791 37.6139 5.87491 37.6039ZM22.0769 47.3909C22.0769 45.3019 22.1229 43.2559 22.0579 41.2129C22.0229 40.0979 21.1389 39.3419 20.0109 39.2919C19.3469 39.2619 18.6809 39.2769 18.0149 39.2799C16.4359 39.2859 15.6069 40.1069 15.6019 41.6789C15.5969 43.4249 15.5999 45.1709 15.6019 46.9169C15.6019 47.0699 15.6209 47.2219 15.6309 47.3909H22.0769ZM9.06391 47.3889C9.06391 45.2469 9.10591 43.1379 9.04391 41.0319C9.01691 40.1279 8.13591 39.3709 7.22091 39.3119C6.47891 39.2639 5.73191 39.2779 4.98791 39.2809C3.45291 39.2869 2.60691 40.1369 2.60391 41.6699C2.60091 43.2889 2.60291 44.9079 2.60291 46.5269V47.3889H9.06391ZM13.9919 23.0229V36.8099H15.1139C15.0629 36.6449 15.0169 36.5109 14.9789 36.3759C14.5309 34.8009 14.8789 33.4209 16.0469 32.2799C16.3129 32.0199 16.4079 31.7749 16.4069 31.4179C16.3979 25.7469 16.4059 20.0749 16.3919 14.4039C16.3909 13.8019 16.6079 13.4449 17.1469 13.1699C19.5889 11.9269 22.0139 10.6509 24.4439 9.38494C24.6539 9.27494 24.8689 9.16693 25.0599 9.02794C25.4229 8.76493 25.5569 8.28493 25.3819 7.88293C25.1989 7.45993 24.8659 7.23193 24.4039 7.28493C24.1759 7.31094 23.9469 7.40794 23.7399 7.51494C21.2919 8.78194 18.8529 10.0659 16.3969 11.3159C16.0459 11.4949 15.6179 11.5959 15.2229 11.6029C13.5429 11.6339 11.8619 11.6099 10.1819 11.6179C8.05891 11.6269 6.68891 12.6669 6.09891 14.6989C5.73191 15.9629 5.35991 17.2249 4.99391 18.4889C4.68591 19.5549 4.37491 20.6209 4.07991 21.6909C3.92391 22.2539 4.17791 22.7649 4.66291 22.9329C5.18291 23.1119 5.69391 22.8549 5.91891 22.2959C5.96591 22.1789 5.99491 22.0539 6.03291 21.9329C6.77891 19.5579 7.52191 17.1829 8.27291 14.8099C8.44291 14.2699 8.76591 14.0179 9.17691 14.0699C9.64991 14.1289 9.90491 14.4729 9.91791 15.0729C9.92091 15.1999 9.91791 15.3269 9.91791 15.4539C9.91791 20.9819 9.93391 26.5099 9.90891 32.0379C9.90091 33.6289 10.1339 35.2419 9.58191 36.8019H12.3699V23.0229H13.9919ZM0.98291 40.8359C1.24891 39.9089 1.63191 39.0519 2.44091 38.4599C2.60691 38.3389 2.77891 38.2249 2.97691 38.0879C1.45391 36.1759 1.30391 34.2199 2.97091 32.3389C4.22091 30.9289 5.82191 30.8259 8.26491 31.8569V20.4869C8.24491 20.4779 8.22591 20.4699 8.20591 20.4609C7.98491 21.1589 7.81391 21.8779 7.52691 22.5469C7.30191 23.0709 7.01191 23.6169 6.60891 24.0039C5.78891 24.7909 4.52291 24.8219 3.56991 24.2019C2.63791 23.5969 2.18191 22.4529 2.48691 21.3779C3.20991 18.8309 3.93191 16.2839 4.69291 13.7479C5.28991 11.7549 7.31591 10.1839 9.37791 10.0399C9.53191 10.0289 9.68391 10.0019 9.91291 9.97293C9.18891 8.92294 8.94891 7.81794 9.21791 6.63494C9.42391 5.72694 9.90491 4.97694 10.6369 4.38594C11.9769 3.30494 13.9159 3.18993 15.3819 4.15993C16.6089 4.97194 17.7549 6.68494 16.8969 9.21394C17.0849 9.12693 17.2369 9.06494 17.3819 8.98894C19.3499 7.96694 21.3109 6.93194 23.2869 5.92594C24.5059 5.30494 25.9789 5.71994 26.6739 6.83794C27.4039 8.01294 27.1449 9.49094 26.0509 10.3309C25.8519 10.4839 25.6219 10.5989 25.3979 10.7159C23.0669 11.9309 20.7359 13.1479 18.3979 14.3519C18.1289 14.4909 18.0129 14.6389 18.0129 14.9639C18.0259 20.2209 18.0219 25.4789 18.0229 30.7369C18.0229 30.8749 18.0379 31.0129 18.0469 31.1629C19.8619 30.9459 21.3439 31.4949 22.2759 33.0589C23.3269 34.8209 23.0249 36.5169 21.7189 38.0599C22.0119 38.2879 22.3049 38.4779 22.5519 38.7159C23.3219 39.4559 23.7069 40.3769 23.7119 41.4429C23.7219 43.6349 23.7099 45.8269 23.7199 48.0189C23.7229 48.4819 23.5289 48.8029 23.1479 49.0339H14.5859C14.1419 48.8359 13.9679 48.4909 13.9699 48.0089C13.9789 45.8329 13.9719 43.6569 13.9759 41.4799C13.9779 40.3769 14.3679 39.4359 15.1729 38.6739C15.2219 38.6269 15.2589 38.5669 15.3189 38.4899H9.33391C10.2879 39.3499 10.7289 40.3569 10.7219 41.5709C10.7099 43.6999 10.7119 45.8279 10.7239 47.9569C10.7269 48.4499 10.5829 48.8249 10.1149 49.0339H0.98291V40.8359Z" fill="#F5BD2D"/>
<path d="M49.1192 0.231255C49.5692 0.486254 49.6982 0.876255 49.6972 1.38425C49.6862 7.65825 49.6902 13.9333 49.6902 20.2073C49.6902 21.1193 49.4322 21.3843 48.5422 21.3843C39.0782 21.3853 29.6132 21.3853 20.1482 21.3853H19.6852V19.7673H48.0412V1.88626H2.62915V17.2933H0.983154V0.231255H49.1192Z" fill="#F5BD2D"/>
<path d="M31.8332 37.6044C33.1652 37.6044 34.2592 36.5174 34.2672 35.1864C34.2752 33.8674 33.1752 32.7514 31.8542 32.7394C30.5092 32.7254 29.4022 33.8354 29.4092 35.1904C29.4162 36.5364 30.4882 37.6044 31.8332 37.6044ZM35.0442 47.4104C35.0442 45.2674 35.0772 43.1884 35.0292 41.1124C35.0072 40.1644 34.1422 39.3714 33.1822 39.3104C32.4412 39.2634 31.6942 39.2774 30.9502 39.2814C29.4242 39.2894 28.5812 40.1454 28.5782 41.6844C28.5752 43.4304 28.5772 45.1774 28.5782 46.9234C28.5792 47.0754 28.5932 47.2284 28.6022 47.4104H34.5802H35.0442ZM27.5242 49.0334C27.0822 48.7724 26.9442 48.3834 26.9492 47.8764C26.9682 46.0184 27.0032 44.1594 26.9432 42.3034C26.8862 40.5294 27.3092 39.0354 28.9882 38.0804C28.0262 37.0344 27.6202 35.8364 27.8442 34.4684C27.9942 33.5494 28.4262 32.7544 29.1392 32.1474C30.7582 30.7694 32.9072 30.7624 34.4762 32.1104C35.3672 32.8764 35.8242 33.8644 35.8742 35.0254C35.9242 36.1874 35.4922 37.1894 34.6832 38.0604C34.8832 38.2014 35.0522 38.3124 35.2112 38.4354C36.2382 39.2304 36.7002 40.2934 36.6992 41.5794C36.6972 43.7074 36.6932 45.8344 36.7032 47.9624C36.7052 48.4534 36.5602 48.8314 36.0862 49.0334H27.5242Z" fill="#F5BD2D"/>
<path d="M47.24 35.1992C47.253 33.8572 46.188 32.7602 44.854 32.7402C43.519 32.7192 42.381 33.8412 42.381 35.1772C42.382 36.5042 43.477 37.5992 44.808 37.6042C46.153 37.6092 47.227 36.5472 47.24 35.1992ZM48.07 47.3922C48.07 47.1872 48.07 47.0302 48.069 46.8742C48.066 45.0002 48.098 43.1262 48.044 41.2542C48.012 40.1472 47.144 39.3522 46.03 39.2962C45.35 39.2622 44.668 39.2772 43.987 39.2802C42.411 39.2862 41.584 40.1112 41.58 41.6842C41.576 43.4302 41.579 45.1772 41.58 46.9232C41.581 47.0752 41.598 47.2272 41.609 47.3922H48.07ZM40.557 49.0332C40.09 48.8242 39.946 48.4502 39.949 47.9572C39.961 45.8292 39.957 43.7022 39.953 41.5742C39.95 40.0462 40.608 38.8952 41.962 38.0812C40.974 36.9582 40.541 35.6822 40.888 34.2132C41.132 33.1792 41.724 32.3742 42.594 31.7772C44.157 30.7052 46.412 30.9542 47.734 32.3452C49.073 33.7542 49.413 36.1612 47.692 38.0562C47.761 38.1152 47.824 38.1812 47.898 38.2292C49.072 38.9812 49.673 40.0642 49.684 41.4502C49.703 43.6412 49.683 45.8332 49.696 48.0242C49.698 48.4922 49.503 48.8072 49.119 49.0332H40.557Z" fill="#F5BD2D"/>
<path d="M30.2124 9.224H46.4214V10.77H30.2124V9.224Z" fill="#F5BD2D"/>
<path d="M43.1864 15.6411H26.9824V14.0922H43.1864V15.6411Z" fill="#F5BD2D"/>
<path d="M27.7964 4.34607H43.9664V5.90503H27.7964V4.34607Z" fill="#F5BD2D"/>
</svg>
