<svg width="50" height="65" viewBox="0 0 50 65" fill="none" xmlns="http://www.w3.org/2000/svg">
<path d="M47.8899 59.7399C47.8899 61.3719 46.5519 62.7099 44.9199 62.7099H5.80886C4.17686 62.7099 2.84887 61.3719 2.84887 59.7399V12.8129C2.84887 11.1709 4.17686 9.84294 5.80886 9.84294H12.6929V12.8129C12.6929 13.3309 13.1189 13.7559 13.6359 13.7559H37.0939C37.6209 13.7559 38.0359 13.3309 38.0359 12.8129V9.84294H44.9199C46.5519 9.84294 47.8899 11.1709 47.8899 12.8129V59.7399ZM14.5779 8.90094C14.5779 7.26794 15.9059 5.92994 17.5479 5.92994H21.4519C21.9789 5.92994 22.3939 5.51494 22.3939 4.98694C22.3939 3.35494 23.7319 2.02694 25.3649 2.02694C27.0069 2.02694 28.3349 3.35494 28.3349 4.98694C28.3349 5.51494 28.7609 5.92994 29.2779 5.92994H33.1909C34.8229 5.92994 36.1609 7.26794 36.1609 8.90094V11.8709H14.5779V8.90094ZM44.9199 7.95794H37.9959L37.7629 7.28894C37.0729 5.35194 35.2389 4.05494 33.1909 4.05494H30.1799L29.9469 3.37494C29.2569 1.43893 27.4219 0.141937 25.3649 0.141937C23.3169 0.141937 21.4819 1.43893 20.7929 3.37494L20.5489 4.05494H17.5479C15.5009 4.05494 13.6559 5.35194 12.9759 7.28894L12.7329 7.95794H5.80886C3.14286 7.95794 0.963867 10.1369 0.963867 12.8129V59.7399C0.963867 62.4159 3.14286 64.5859 5.80886 64.5859H44.9199C47.5959 64.5859 49.7649 62.4159 49.7649 59.7399V12.8129C49.7649 10.1369 47.5959 7.95794 44.9199 7.95794Z" fill="#F5BD2D"/>
<path d="M47.8899 59.7399C47.8899 61.3719 46.5519 62.7099 44.9199 62.7099H5.80886C4.17686 62.7099 2.84887 61.3719 2.84887 59.7399V12.8129C2.84887 11.1709 4.17686 9.84294 5.80886 9.84294H12.6929V12.8129C12.6929 13.3309 13.1189 13.7559 13.6359 13.7559H37.0939C37.6209 13.7559 38.0359 13.3309 38.0359 12.8129V9.84294H44.9199C46.5519 9.84294 47.8899 11.1709 47.8899 12.8129V59.7399ZM14.5779 8.90094C14.5779 7.26794 15.9059 5.92994 17.5479 5.92994H21.4519C21.9789 5.92994 22.3939 5.51494 22.3939 4.98694C22.3939 3.35494 23.7319 2.02694 25.3649 2.02694C27.0069 2.02694 28.3349 3.35494 28.3349 4.98694C28.3349 5.51494 28.7609 5.92994 29.2779 5.92994H33.1909C34.8229 5.92994 36.1609 7.26794 36.1609 8.90094V11.8709H14.5779V8.90094ZM44.9199 7.95794H37.9959L37.7629 7.28894C37.0729 5.35194 35.2389 4.05494 33.1909 4.05494H30.1799L29.9469 3.37494C29.2569 1.43893 27.4219 0.141937 25.3649 0.141937C23.3169 0.141937 21.4819 1.43893 20.7929 3.37494L20.5489 4.05494H17.5479C15.5009 4.05494 13.6559 5.35194 12.9759 7.28894L12.7329 7.95794H5.80886C3.14286 7.95794 0.963867 10.1369 0.963867 12.8129V59.7399C0.963867 62.4159 3.14286 64.5859 5.80886 64.5859H44.9199C47.5959 64.5859 49.7649 62.4159 49.7649 59.7399V12.8129C49.7649 10.1369 47.5959 7.95794 44.9199 7.95794Z" fill="#F5BD2D"/>
<path d="M20.4376 24.5426C20.4376 25.0596 20.0216 25.4856 19.5046 25.4856H11.6786C11.1616 25.4856 10.7356 25.0596 10.7356 24.5426C10.7356 24.0256 11.1616 23.5996 11.6786 23.5996H19.5046C20.0216 23.5996 20.4376 24.0256 20.4376 24.5426Z" fill="#F5BD2D"/>
<path d="M20.4376 24.5426C20.4376 25.0596 20.0216 25.4856 19.5046 25.4856H11.6786C11.1616 25.4856 10.7356 25.0596 10.7356 24.5426C10.7356 24.0256 11.1616 23.5996 11.6786 23.5996H19.5046C20.0216 23.5996 20.4376 24.0256 20.4376 24.5426Z" fill="#F5BD2D"/>
<path d="M20.4376 38.2284C20.4376 38.7454 20.0216 39.1714 19.5046 39.1714H11.6786C11.1616 39.1714 10.7356 38.7454 10.7356 38.2284C10.7356 37.7114 11.1616 37.2854 11.6786 37.2854H19.5046C20.0216 37.2854 20.4376 37.7114 20.4376 38.2284Z" fill="#F5BD2D"/>
<path d="M20.4376 38.2284C20.4376 38.7454 20.0216 39.1714 19.5046 39.1714H11.6786C11.1616 39.1714 10.7356 38.7454 10.7356 38.2284C10.7356 37.7114 11.1616 37.2854 11.6786 37.2854H19.5046C20.0216 37.2854 20.4376 37.7114 20.4376 38.2284Z" fill="#F5BD2D"/>
<path d="M20.4376 51.9139C20.4376 52.4309 20.0216 52.8569 19.5046 52.8569H11.6786C11.1616 52.8569 10.7356 52.4309 10.7356 51.9139C10.7356 51.3969 11.1616 50.9709 11.6786 50.9709H19.5046C20.0216 50.9709 20.4376 51.3969 20.4376 51.9139Z" fill="#F5BD2D"/>
<path d="M20.4376 51.9139C20.4376 52.4309 20.0216 52.8569 19.5046 52.8569H11.6786C11.1616 52.8569 10.7356 52.4309 10.7356 51.9139C10.7356 51.3969 11.1616 50.9709 11.6786 50.9709H19.5046C20.0216 50.9709 20.4376 51.3969 20.4376 51.9139Z" fill="#F5BD2D"/>
<path d="M39.7192 23.2552L33.8492 29.1252C33.6772 29.2972 33.4342 29.3982 33.1902 29.3982C32.9372 29.3982 32.7042 29.2972 32.5212 29.1252L28.6082 25.2122C28.4362 25.0292 28.3352 24.7962 28.3352 24.5422C28.3352 24.2892 28.4362 24.0562 28.6082 23.8742C28.7912 23.7012 29.0242 23.6002 29.2772 23.6002C29.5312 23.6002 29.7642 23.7012 29.9462 23.8742L33.1902 27.1282L38.3912 21.9272C38.5632 21.7452 38.8072 21.6432 39.0502 21.6432C39.3032 21.6432 39.5362 21.7452 39.7192 21.9272C40.0842 22.2922 40.0842 22.8902 39.7192 23.2552Z" fill="#F5BD2D"/>
<path d="M39.7192 23.2552L33.8492 29.1252C33.6772 29.2972 33.4342 29.3982 33.1902 29.3982C32.9372 29.3982 32.7042 29.2972 32.5212 29.1252L28.6082 25.2122C28.4362 25.0292 28.3352 24.7962 28.3352 24.5422C28.3352 24.2892 28.4362 24.0562 28.6082 23.8742C28.7912 23.7012 29.0242 23.6002 29.2772 23.6002C29.5312 23.6002 29.7642 23.7012 29.9462 23.8742L33.1902 27.1282L38.3912 21.9272C38.5632 21.7452 38.8072 21.6432 39.0502 21.6432C39.3032 21.6432 39.5362 21.7452 39.7192 21.9272C40.0842 22.2922 40.0842 22.8902 39.7192 23.2552Z" fill="#F5BD2D"/>
<path d="M39.7192 34.9842L33.8492 40.8542C33.6772 41.0262 33.4342 41.1272 33.1902 41.1272C32.9372 41.1272 32.7042 41.0262 32.5212 40.8542L28.6082 36.9412C28.4362 36.7582 28.3352 36.5252 28.3352 36.2712C28.3352 36.0282 28.4362 35.7852 28.6082 35.6122C28.7912 35.4302 29.0242 35.3292 29.2772 35.3292C29.5312 35.3292 29.7642 35.4302 29.9462 35.6122L33.1902 38.8562L38.3912 33.6562C38.5632 33.4742 38.8072 33.3822 39.0502 33.3822C39.3032 33.3822 39.5362 33.4742 39.7192 33.6562C40.0842 34.0212 40.0842 34.6192 39.7192 34.9842Z" fill="#F5BD2D"/>
<path d="M39.7192 34.9842L33.8492 40.8542C33.6772 41.0262 33.4342 41.1272 33.1902 41.1272C32.9372 41.1272 32.7042 41.0262 32.5212 40.8542L28.6082 36.9412C28.4362 36.7582 28.3352 36.5252 28.3352 36.2712C28.3352 36.0282 28.4362 35.7852 28.6082 35.6122C28.7912 35.4302 29.0242 35.3292 29.2772 35.3292C29.5312 35.3292 29.7642 35.4302 29.9462 35.6122L33.1902 38.8562L38.3912 33.6562C38.5632 33.4742 38.8072 33.3822 39.0502 33.3822C39.3032 33.3822 39.5362 33.4742 39.7192 33.6562C40.0842 34.0212 40.0842 34.6192 39.7192 34.9842Z" fill="#F5BD2D"/>
<path d="M37.7626 55.1578C38.1276 55.5328 38.1276 56.1308 37.7626 56.4958C37.5906 56.6678 37.3466 56.7698 37.0936 56.7698C36.8506 56.7698 36.6066 56.6678 36.4346 56.4958L33.1906 53.2518L29.9466 56.4958C29.7646 56.6678 29.5306 56.7698 29.2776 56.7698C29.0236 56.7698 28.7906 56.6678 28.6086 56.4958C28.2436 56.1308 28.2436 55.5328 28.6086 55.1578L31.8526 51.9138L28.6086 48.6698C28.4356 48.4978 28.3346 48.2538 28.3346 48.0108C28.3346 47.7578 28.4356 47.5138 28.6086 47.3418C28.7906 47.1598 29.0236 47.0678 29.2776 47.0678C29.5306 47.0678 29.7646 47.1598 29.9466 47.3418L33.1906 50.5858L36.4346 47.3418C36.6066 47.1598 36.8506 47.0678 37.0936 47.0678C37.3466 47.0678 37.5906 47.1598 37.7626 47.3418C38.1276 47.7068 38.1276 48.3048 37.7626 48.6698L34.5186 51.9138L37.7626 55.1578Z" fill="#F5BD2D"/>
<path d="M37.7626 55.1578C38.1276 55.5328 38.1276 56.1308 37.7626 56.4958C37.5906 56.6678 37.3466 56.7698 37.0936 56.7698C36.8506 56.7698 36.6066 56.6678 36.4346 56.4958L33.1906 53.2518L29.9466 56.4958C29.7646 56.6678 29.5306 56.7698 29.2776 56.7698C29.0236 56.7698 28.7906 56.6678 28.6086 56.4958C28.2436 56.1308 28.2436 55.5328 28.6086 55.1578L31.8526 51.9138L28.6086 48.6698C28.4356 48.4978 28.3346 48.2538 28.3346 48.0108C28.3346 47.7578 28.4356 47.5138 28.6086 47.3418C28.7906 47.1598 29.0236 47.0678 29.2776 47.0678C29.5306 47.0678 29.7646 47.1598 29.9466 47.3418L33.1906 50.5858L36.4346 47.3418C36.6066 47.1598 36.8506 47.0678 37.0936 47.0678C37.3466 47.0678 37.5906 47.1598 37.7626 47.3418C38.1276 47.7068 38.1276 48.3048 37.7626 48.6698L34.5186 51.9138L37.7626 55.1578Z" fill="#F5BD2D"/>
</svg>
