<svg width="50" height="63" viewBox="0 0 50 63" fill="none" xmlns="http://www.w3.org/2000/svg">
<path d="M39.9254 52.6178C39.4744 52.4558 38.9724 52.6468 38.7434 53.0678L35.4644 59.0878L30.0554 44.8738C30.6864 44.8698 31.3134 44.7688 31.9144 44.5748C33.6014 44.0308 34.9634 42.7708 35.6364 41.1308C36.2434 39.6848 37.6164 38.7068 39.1804 38.6048C39.4944 38.5808 39.8054 38.5328 40.1114 38.4608L46.3784 54.9368L39.9254 52.6178ZM27.8224 42.3098C25.8494 41.1048 23.3684 41.1048 21.3964 42.3098C20.3514 42.9558 19.0744 43.1068 17.9074 42.7248C16.7654 42.3568 15.8424 41.5048 15.3854 40.3948C14.4944 38.2638 12.4754 36.8198 10.1714 36.6638C8.94837 36.5858 7.82337 35.9668 7.10237 34.9758C6.40537 34.0178 6.17137 32.7978 6.46537 31.6498C7.01837 29.4158 6.24037 27.0618 4.46337 25.5988C2.75737 24.2048 2.50337 21.6918 3.89737 19.9858C4.06937 19.7748 4.26337 19.5818 4.47437 19.4108C6.24737 17.9438 7.02037 15.5898 6.46237 13.3578C6.17237 12.2118 6.40637 10.9968 7.10237 10.0418C7.82637 9.04881 8.95537 8.42981 10.1814 8.35381C12.4824 8.19481 14.4964 6.75181 15.3854 4.62381C15.8424 3.51381 16.7654 2.66081 17.9084 2.29481C19.0754 1.91181 20.3524 2.06381 21.3974 2.70881C23.3704 3.91381 25.8514 3.91381 27.8244 2.70881C28.8694 2.06381 30.1454 1.91281 31.3124 2.29481C32.4554 2.66181 33.3784 3.51381 33.8354 4.62381C34.7264 6.75481 36.7444 8.19881 39.0494 8.35481C40.2724 8.43281 41.3964 9.05181 42.1174 10.0428C42.8154 11.0008 43.0484 12.2208 42.7554 13.3688C42.2014 15.6028 42.9804 17.9568 44.7574 19.4198C46.4634 20.8138 46.7164 23.3268 45.3224 25.0328C45.1504 25.2438 44.9574 25.4368 44.7454 25.6078C42.9734 27.0748 42.2004 29.4288 42.7574 31.6608C43.0484 32.8058 42.8134 34.0208 42.1174 34.9758C41.3934 35.9698 40.2644 36.5888 39.0384 36.6648C36.7374 36.8238 34.7234 38.2668 33.8344 40.3948C33.3784 41.5048 32.4554 42.3578 31.3124 42.7238C30.1444 43.1078 28.8674 42.9558 27.8224 42.3098ZM13.7554 59.0888L10.4774 53.0688C10.2474 52.6478 9.74537 52.4568 9.29437 52.6178L2.84237 54.9368L9.10937 38.4608C9.41837 38.5328 9.73237 38.5808 10.0484 38.6058C11.6104 38.7108 12.9784 39.6878 13.5844 41.1308C14.2574 42.7708 15.6184 44.0298 17.3054 44.5738C17.9064 44.7678 18.5344 44.8678 19.1654 44.8718L13.7554 59.0888ZM48.9474 56.2208V56.2218L41.9174 37.7378C42.6114 37.3228 43.2154 36.7718 43.6924 36.1178C44.7294 34.6928 45.0774 32.8798 44.6414 31.1718C44.2694 29.6668 44.7964 28.0818 45.9954 27.0988C48.5294 25.0208 48.9004 21.2828 46.8224 18.7478C46.5714 18.4418 46.2904 18.1618 45.9834 17.9108C44.7894 16.9238 44.2684 15.3388 44.6444 13.8358C45.0764 12.1308 44.7274 10.3218 43.6924 8.89981C42.6304 7.43982 40.9734 6.52781 39.1714 6.41281C37.6104 6.30781 36.2414 5.33081 35.6354 3.88781C34.9624 2.24781 33.6014 0.987812 31.9144 0.444813C30.2034 -0.115189 28.3324 0.107815 26.8014 1.05281C25.4554 1.87481 23.7634 1.87481 22.4184 1.05281C20.8864 0.107815 19.0154 -0.115189 17.3044 0.444813C15.6184 0.988811 14.2574 2.24781 13.5844 3.88681C12.9774 5.33281 11.6044 6.31081 10.0394 6.41381C8.24037 6.53082 6.58637 7.44181 5.52837 8.90081C4.49137 10.3258 4.14337 12.1388 4.57937 13.8468C4.95037 15.3518 4.42337 16.9368 3.22437 17.9208C0.69037 19.9978 0.32037 23.7368 2.39737 26.2708C2.64837 26.5768 2.92937 26.8578 3.23637 27.1078C4.43037 28.0948 4.95137 29.6798 4.57637 31.1828C4.14337 32.8878 4.49237 34.6968 5.52737 36.1188C6.00437 36.7718 6.60837 37.3228 7.30237 37.7378L0.273369 56.2218C0.0813693 56.7228 0.33337 57.2848 0.83537 57.4758C1.05237 57.5588 1.29137 57.5608 1.51037 57.4828L9.16737 54.7298L13.0584 61.8758C13.2284 62.1878 13.5564 62.3828 13.9124 62.3828C13.9344 62.3828 13.9554 62.3818 13.9774 62.3808C14.3564 62.3548 14.6864 62.1108 14.8214 61.7558L21.4024 44.4608C21.7564 44.3268 22.0964 44.1608 22.4194 43.9648C23.7644 43.1428 25.4564 43.1428 26.8014 43.9648C27.1224 44.1588 27.4634 44.3228 27.8154 44.4538L34.3994 61.7558C34.5344 62.1108 34.8634 62.3538 35.2424 62.3798C35.2644 62.3808 35.2864 62.3818 35.3074 62.3818C35.6644 62.3818 35.9914 62.1878 36.1614 61.8748L40.0524 54.7288L47.7094 57.4818C48.2144 57.6638 48.7714 57.4008 48.9534 56.8958C49.0324 56.6778 49.0294 56.4378 48.9474 56.2208Z" fill="#FFC20E"/>
<path d="M24.6101 35.1522C17.6271 35.1522 11.9671 29.4922 11.9671 22.5092C11.9671 15.5272 17.6271 9.86617 24.6101 9.86617C31.5921 9.86617 37.2531 15.5272 37.2531 22.5092C37.2451 29.4882 31.5891 35.1442 24.6101 35.1522ZM39.1981 22.5092C39.1981 14.4522 32.6671 7.92117 24.6101 7.92117C16.5531 7.92117 10.0221 14.4522 10.0221 22.5092C10.0221 30.5662 16.5531 37.0972 24.6101 37.0972C32.6631 37.0882 39.1891 30.5622 39.1981 22.5092Z" fill="#FFC20E"/>
<path d="M27.728 23.2524C27.499 23.4764 27.395 23.7984 27.449 24.1134L28.012 27.3974L25.062 25.8474C24.779 25.6984 24.441 25.6984 24.158 25.8474L21.208 27.3974L21.771 24.1124C21.825 23.7974 21.721 23.4754 21.492 23.2524L19.105 20.9264L22.403 20.4474C22.72 20.4014 22.994 20.2014 23.135 19.9144L24.61 16.9274L26.085 19.9144C26.226 20.2024 26.5 20.4014 26.817 20.4474L30.115 20.9264L27.728 23.2524ZM32.344 19.2844H32.345L27.603 18.5954L25.482 14.2984C25.198 13.8174 24.577 13.6574 24.096 13.9414C23.948 14.0284 23.825 14.1514 23.738 14.2984L21.617 18.5954L16.875 19.2844C16.344 19.3614 15.975 19.8544 16.052 20.3864C16.083 20.5984 16.182 20.7944 16.336 20.9434L19.768 24.2884L18.958 29.0104C18.868 29.5404 19.223 30.0424 19.753 30.1334C19.963 30.1694 20.179 30.1354 20.368 30.0364L24.61 27.8064L28.852 30.0364C29.327 30.2854 29.915 30.1014 30.164 29.6264C30.263 29.4374 30.298 29.2214 30.262 29.0104L29.452 24.2884L32.884 20.9434C33.269 20.5684 33.277 19.9534 32.902 19.5684C32.752 19.4144 32.556 19.3154 32.344 19.2844Z" fill="#FFC20E"/>
</svg>
