<svg width="57" height="50" viewBox="0 0 57 50" fill="none" xmlns="http://www.w3.org/2000/svg">
<path d="M24.1956 25.2322C24.1956 27.1852 24.2126 29.1382 24.1906 31.0902C24.1696 32.9022 22.5186 33.8422 20.9416 32.9652C20.7656 32.8662 20.5956 32.7522 20.4106 32.6742C19.6306 32.3442 18.8956 32.4452 18.2236 32.9492C17.6326 33.3922 17.4006 34.0142 17.5806 34.7072C17.7166 35.2312 17.9146 35.7892 18.2456 36.2052C19.9496 38.3512 21.6826 40.4772 23.4586 42.5642C24.0266 43.2322 24.3846 43.9232 24.3996 44.7902C24.4096 45.3792 24.3956 45.9692 24.4036 46.5582C24.4136 47.2882 24.7196 47.5952 25.4516 47.6022C26.3366 47.6112 27.2206 47.6052 28.1046 47.6052C30.6836 47.6052 33.2626 47.6062 35.8416 47.6042C36.7516 47.6032 37.0146 47.3322 37.0186 46.4112C37.0206 46.0802 37.0466 45.7452 37.0146 45.4172C36.8726 43.9932 37.2806 42.7902 38.2836 41.7422C38.8646 41.1332 39.1696 40.3202 39.1986 39.4782C39.2486 38.0252 39.2816 36.5652 39.1986 35.1162C39.0756 32.9562 37.1366 31.0242 34.9906 30.9122C33.3006 30.8242 31.6036 30.8522 29.9096 30.8372C28.5876 30.8262 28.0946 30.3342 28.0946 28.9932C28.0926 25.9172 28.0946 22.8402 28.0926 19.7642C28.0926 19.5062 28.0996 19.2452 28.0596 18.9922C27.9346 18.1952 27.4846 17.6422 26.7166 17.3942C25.9616 17.1502 25.2966 17.3582 24.7476 17.9132C24.3196 18.3452 24.1926 18.8912 24.1946 19.4842C24.1996 21.4002 24.1966 23.3162 24.1956 25.2322ZM0.0786133 15.5322C0.369613 15.1882 0.665614 14.8512 1.18861 15.0472C1.69961 15.2382 1.75461 15.6622 1.75061 16.1322C1.74161 17.2002 1.75261 18.2692 1.74561 19.3372C1.74261 19.8202 1.96761 20.0512 2.44761 20.0512C9.07961 20.0482 15.7116 20.0462 22.3436 20.0422C22.3776 20.0422 22.4126 20.0232 22.5146 19.9932C22.4606 18.5852 22.7576 17.2782 23.9876 16.3612C24.7116 15.8212 25.5246 15.5732 26.4196 15.6432C27.5076 15.7272 28.3696 16.2302 29.0356 17.0982C29.6916 17.9522 29.7886 18.9502 29.7976 20.0502H30.4126C38.2976 20.0502 46.1826 20.0502 54.0676 20.0502C54.9086 20.0502 55.0286 19.9322 55.0286 19.1012C55.0286 13.7772 55.0286 8.45222 55.0286 3.12822C55.0286 2.26022 54.9266 2.16222 54.0336 2.16222C53.3336 2.16122 52.6336 2.16922 51.9336 2.15922C51.3346 2.15022 50.9596 1.82322 50.9566 1.33422C50.9546 0.842216 51.3286 0.504215 51.9266 0.496216C52.7916 0.484215 53.6586 0.483215 54.5236 0.497215C55.6476 0.515217 56.2696 1.20922 56.6976 2.15122V19.9552C56.2566 21.2932 55.3016 21.7392 53.9376 21.7342C46.1246 21.7042 38.3116 21.7192 30.4996 21.7192H29.8166V29.1592C30.0566 29.1592 30.2726 29.1562 30.4876 29.1592C32.0706 29.1802 33.6636 29.1052 35.2366 29.2462C38.3096 29.5212 40.7726 32.1282 40.8876 35.2052C40.9486 36.8572 40.9056 38.5202 40.7776 40.1682C40.6886 41.3082 40.1016 42.3042 39.3236 43.1482C38.8716 43.6392 38.6546 44.1752 38.6836 44.8452C38.7126 45.5252 38.7056 46.2092 38.6756 46.8892C38.6166 48.1932 37.5976 49.2472 36.2926 49.2572C32.5706 49.2842 28.8486 49.2842 25.1266 49.2562C23.8256 49.2462 22.8056 48.1882 22.7446 46.8862C22.7156 46.2612 22.7266 45.6332 22.7286 45.0072C22.7306 44.4452 22.5006 44.0432 22.1166 43.6052C20.6606 41.9452 19.2596 40.2352 17.8866 38.5052C17.2846 37.7462 16.7116 36.9392 16.2786 36.0772C15.5016 34.5292 15.8206 32.8282 16.9476 31.8092C18.2156 30.6622 20.0356 30.5062 21.5656 31.3842C21.7796 31.5062 22.1096 31.6052 22.3046 31.5232C22.4476 31.4622 22.5166 31.0872 22.5186 30.8522C22.5316 27.9782 22.5276 25.1032 22.5276 22.2292V21.7192H21.8546C15.5156 21.7192 9.17761 21.7012 2.83861 21.7342C1.47461 21.7412 0.519613 21.2932 0.0786133 19.9552V15.5322Z" fill="#F5BD2D"/>
<path d="M0.0787354 2.15171C0.609735 0.84271 1.61174 0.47271 2.97174 0.47471C17.9357 0.50371 32.8987 0.492709 47.8617 0.49371C48.0647 0.49371 48.2687 0.481709 48.4697 0.503709C48.9427 0.555709 49.2757 0.91371 49.2697 1.33971C49.2627 1.77371 48.9297 2.11171 48.4507 2.15271C48.2497 2.17071 48.0457 2.16171 47.8427 2.16171C32.8247 2.16171 17.8057 2.16171 2.78674 2.16171C1.82374 2.16171 1.74774 2.23771 1.74774 3.19471C1.74774 6.19871 1.74574 9.20271 1.75074 12.2067C1.75074 12.6367 1.68974 13.0217 1.24574 13.2197C0.708735 13.4587 0.387735 13.1257 0.0787354 12.7677V2.15171Z" fill="#F5BD2D"/>
<path d="M6.4666 9.89149C6.9846 9.89149 7.4426 9.92049 7.8956 9.88449C8.5156 9.83449 8.7956 9.47649 8.8136 8.79849C8.8326 8.07349 8.5746 7.67249 7.9556 7.60349C7.4716 7.54949 6.9776 7.59249 6.4666 7.59249V9.89149ZM9.2826 11.1425C9.7406 11.9745 10.1936 12.7925 10.6406 13.6135C10.9736 14.2245 10.8416 14.6265 10.2076 14.9635C9.6276 15.2715 9.1986 15.1455 8.8856 14.5525C8.4396 13.7065 7.9746 12.8675 7.5836 11.9965C7.3496 11.4755 7.0366 11.3135 6.4446 11.5035C6.4446 12.3385 6.4416 13.1985 6.4456 14.0575C6.4466 14.4175 6.4576 14.8515 6.0396 14.9215C5.6146 14.9925 5.1506 14.9175 4.7236 14.8205C4.6076 14.7945 4.4986 14.4545 4.4966 14.2585C4.4816 11.7165 4.4836 9.17349 4.4896 6.63149C4.4906 6.04449 4.6566 5.86549 5.2486 5.86249C6.2436 5.85549 7.2396 5.85249 8.2316 5.90349C9.5506 5.97049 10.4136 6.61149 10.6726 7.68149C11.0126 9.08449 10.5566 10.5465 9.4726 10.9925C9.4096 11.0185 9.3616 11.0795 9.2826 11.1425Z" fill="#F5BD2D"/>
<path d="M34.1011 9.91741C34.8571 9.81341 35.6621 10.1894 36.2561 9.49541C36.5461 9.15541 36.5411 8.30741 36.2481 7.97441C35.6491 7.29441 34.8511 7.65141 34.1011 7.56641V9.91741ZM36.9071 11.1344C37.3901 12.0094 37.8481 12.8284 38.2961 13.6534C38.6051 14.2214 38.4591 14.6274 37.8441 14.9584C37.2811 15.2604 36.8401 15.1524 36.5481 14.6044C36.0881 13.7444 35.6131 12.8894 35.2181 11.9994C34.9831 11.4704 34.6631 11.3224 34.0661 11.4944C34.0661 12.3084 34.0671 13.1484 34.0651 13.9894C34.0641 14.9044 33.3331 15.3614 32.5081 14.9244C32.3241 14.8264 32.1351 14.5324 32.1331 14.3274C32.1081 11.7294 32.1171 9.13141 32.1181 6.53241C32.1181 6.10641 32.3411 5.86541 32.7591 5.86741C33.9011 5.87441 35.0481 5.84341 36.1821 5.94241C37.3591 6.04541 38.1151 6.76141 38.3311 7.77941C38.6251 9.16841 38.1981 10.3284 37.1591 10.9614C37.0831 11.0074 37.0121 11.0614 36.9071 11.1344Z" fill="#F5BD2D"/>
<path d="M13.8155 7.56974V9.68974C14.3655 9.68974 14.8945 9.68274 15.4225 9.69074C16.0055 9.70074 16.2615 9.94874 16.2535 10.4767C16.2465 10.9757 15.9985 11.2037 15.4335 11.2117C14.9035 11.2197 14.3745 11.2137 13.8185 11.2137V13.3387C14.8525 13.3387 15.8605 13.3337 16.8675 13.3407C17.5215 13.3447 17.8445 13.7317 17.7455 14.3737C17.6775 14.8137 17.4455 15.0707 16.9715 15.0687C15.5715 15.0647 14.1715 15.0807 12.7725 15.0607C12.0385 15.0507 11.8205 14.8047 11.8195 14.0847C11.8175 11.6717 11.8175 9.25874 11.8195 6.84574C11.8205 6.11274 11.9985 5.88374 12.7045 5.86974C14.1405 5.84274 15.5775 5.84974 17.0145 5.86274C17.5125 5.86774 17.7545 6.16874 17.7575 6.69474C17.7595 7.24974 17.5025 7.56074 16.9935 7.56674C15.9475 7.57774 14.9015 7.56974 13.8155 7.56974Z" fill="#F5BD2D"/>
<path d="M27.3134 13.3386C28.3444 13.3386 29.3524 13.3336 30.3594 13.3406C31.0284 13.3446 31.3654 13.7706 31.2334 14.4256C31.1554 14.8106 30.9464 15.0646 30.5244 15.0646C29.0694 15.0666 27.6144 15.0816 26.1594 15.0516C25.5214 15.0376 25.3164 14.7806 25.3154 14.1426C25.3104 11.6926 25.3104 9.24256 25.3144 6.79256C25.3154 6.10956 25.5044 5.88356 26.1964 5.87056C27.6324 5.84356 29.0694 5.84956 30.5064 5.86356C31.0184 5.86756 31.2724 6.19956 31.2514 6.74856C31.2314 7.27456 30.9804 7.56156 30.4894 7.56656C29.4434 7.57756 28.3964 7.56956 27.3174 7.56956V9.68956C27.8594 9.68956 28.3874 9.68256 28.9154 9.69156C29.4994 9.70056 29.7564 9.94956 29.7484 10.4746C29.7404 10.9786 29.4964 11.2036 28.9304 11.2116C28.4014 11.2196 27.8714 11.2136 27.3134 11.2136V13.3386Z" fill="#F5BD2D"/>
<path d="M48.865 7.56991V9.68991C49.412 9.68991 49.939 9.68291 50.466 9.69091C51.057 9.70091 51.304 9.93991 51.298 10.4729C51.291 10.9809 51.052 11.2039 50.485 11.2119C49.956 11.2199 49.427 11.2139 48.843 11.2139V12.2999V13.3389C49.885 13.3389 50.873 13.3349 51.861 13.3399C52.603 13.3429 52.935 13.7739 52.766 14.4839C52.677 14.8589 52.456 15.0639 52.072 15.0649C50.636 15.0689 49.2 15.0819 47.765 15.0579C47.076 15.0459 46.867 14.7879 46.866 14.0869C46.864 11.6579 46.864 9.22791 46.867 6.79791C46.868 6.11891 47.06 5.88391 47.742 5.87091C49.177 5.84391 50.614 5.84991 52.049 5.86291C52.567 5.86691 52.821 6.19091 52.804 6.73891C52.787 7.28591 52.528 7.56391 51.994 7.56791C50.967 7.57591 49.939 7.56991 48.865 7.56991Z" fill="#F5BD2D"/>
<path d="M21.7336 5.70741C22.3376 5.84941 22.9626 5.93641 23.5396 6.15041C24.1186 6.36441 24.2516 6.87341 23.9826 7.42241C23.7476 7.90441 23.4736 7.96541 22.9396 7.81141C22.3846 7.65241 21.8016 7.50541 21.2346 7.51441C20.9536 7.51941 20.5626 7.83141 20.4286 8.10541C20.2376 8.49541 20.6406 8.73041 20.9436 8.89541C21.5726 9.23941 22.2356 9.52141 22.8576 9.87641C24.0496 10.5584 24.5296 11.6424 24.2926 13.0104C24.0986 14.1274 23.2246 14.9104 21.8946 15.1214C20.7816 15.2984 19.7226 15.1224 18.7806 14.4794C18.1636 14.0594 18.0336 13.4974 18.3696 12.9604C18.6686 12.4824 19.0676 12.3954 19.5386 12.7024C19.8316 12.8934 20.1176 13.0964 20.4236 13.2624C20.5806 13.3474 20.7726 13.3824 20.9536 13.4064C21.6116 13.4954 22.2266 13.2134 22.3546 12.7794C22.4816 12.3504 22.2206 11.9504 21.5616 11.5984C21.0586 11.3304 20.5386 11.0934 20.0396 10.8174C18.7056 10.0794 18.1876 9.06941 18.4656 7.78941C18.7046 6.69041 19.7616 5.91041 21.1606 5.80841C21.3436 5.79541 21.5296 5.80641 21.7136 5.80641C21.7196 5.77341 21.7266 5.74041 21.7336 5.70741Z" fill="#F5BD2D"/>
<path d="M42.5455 12.4838C42.9875 10.8538 43.4285 9.22476 43.8705 7.59476C43.9815 7.18676 44.0805 6.77576 44.2065 6.37176C44.3535 5.90476 44.7325 5.76476 45.3365 5.92976C45.9225 6.09076 46.2085 6.43376 46.0705 6.89476C45.3215 9.39476 44.5665 11.8938 43.7925 14.3868C43.6245 14.9278 43.1395 15.1488 42.3945 15.1178C41.6665 15.0878 41.3185 14.8458 41.1205 14.2018C40.4835 12.1288 39.8525 10.0528 39.2185 7.97876C39.1165 7.64476 38.9955 7.31576 38.9105 6.97776C38.7765 6.43876 39.0495 6.07176 39.6735 5.91776C40.2975 5.76476 40.6395 5.92076 40.7905 6.46476C41.3025 8.30676 41.8045 10.1518 42.3105 11.9948C42.3545 12.1538 42.4025 12.3108 42.4475 12.4688C42.4805 12.4738 42.5135 12.4788 42.5455 12.4838Z" fill="#F5BD2D"/>
</svg>
