<svg width="26" height="29" viewBox="0 0 26 29" fill="none" xmlns="http://www.w3.org/2000/svg">
<path d="M16.4949 24.8974C16.0489 25.8864 15.7539 26.9604 15.6409 28.0864L25.0829 26.0794C25.5289 25.0904 25.8239 24.0164 25.9369 22.8904L16.4949 24.8974Z" fill="white"/>
<path d="M25.0827 20.066C25.5287 19.077 25.8237 18.003 25.9367 16.877L18.5817 18.441V15.434L25.0827 14.053C25.5287 13.064 25.8237 11.99 25.9367 10.864L18.5817 12.427V1.612C17.4547 2.245 16.4537 3.08701 15.6397 4.08101V13.052L12.6987 13.678V0.141005C11.5717 0.774004 10.5707 1.617 9.75672 2.61V14.303L3.17572 15.701C2.72872 16.69 2.43372 17.764 2.32072 18.89L9.75672 17.31V21.097L1.78772 22.79C1.34172 23.779 1.04672 24.853 0.933716 25.979L9.27572 24.206C9.95472 24.065 10.5377 23.664 10.9177 23.111L12.4467 20.843C12.6057 20.608 12.6987 20.325 12.6987 20.02V16.685L15.6397 16.059V22.074L25.0827 20.066Z" fill="white"/>
</svg>
