<svg width="52" height="52" viewBox="0 0 52 52" fill="none" xmlns="http://www.w3.org/2000/svg">
    <path
        d="M0.189819 0.643356C2.89982 5.14836 4.86382 8.08335 9.15982 12.4234C9.88982 13.1564 11.0778 14.3484 13.5468 16.8264C16.5548 19.8294 23.6798 26.9434 23.6798 26.9434C23.6798 26.9434 29.6338 32.9094 32.9338 36.2164C36.2408 39.5134 38.2868 41.5534 39.3558 42.6194C43.6958 46.9164 46.6308 48.8804 51.1358 51.5894C48.4268 47.0844 46.4628 44.1494 42.1668 39.8094C41.1008 38.7404 39.0598 36.6944 35.7638 33.3874C32.4558 30.0874 26.4908 24.1334 26.4908 24.1334C26.4908 24.1334 19.3758 17.0084 16.3728 14.0004C13.8948 11.5314 12.7028 10.3434 11.9698 9.61236C7.62982 5.31736 4.69482 3.35336 0.189819 0.643356Z"
        fill="#F6C548" />
    <path
        d="M0.190247 51.5896C4.69525 48.8796 7.63025 46.9156 11.9702 42.6196C12.7032 41.8896 13.8952 40.7016 16.3732 38.2326C19.3762 35.2246 26.4902 28.0996 26.4902 28.0996C26.4902 28.0996 32.4562 22.1456 35.7632 18.8456C39.0602 15.5386 41.1003 13.4926 42.1662 12.4236C46.4632 8.0836 48.4272 5.1486 51.1362 0.6436C46.6312 3.3526 43.6962 5.3166 39.3562 9.6126C38.2872 10.6786 36.2412 12.7196 32.9342 16.0156C29.6332 19.3236 23.6802 25.2886 23.6802 25.2886C23.6802 25.2886 16.5552 32.4036 13.5472 35.4066C11.0782 37.8846 9.89025 39.0766 9.16025 39.8096C4.86425 44.1496 2.90025 47.0846 0.190247 51.5896Z"
        fill="#F6C548" />
</svg>
    