<svg width="34" height="34" viewBox="0 0 34 34" xmlns="http://www.w3.org/2000/svg">
    <path
        d="M23.1832 10.8166C23.0283 10.6604 22.8439 10.5364 22.6408 10.4518C22.4377 10.3672 22.2199 10.3236 21.9999 10.3236C21.7799 10.3236 21.562 10.3672 21.3589 10.4518C21.1558 10.5364 20.9715 10.6604 20.8166 10.8166L16.9999 14.65L13.1832 10.8166C12.8694 10.5028 12.4437 10.3265 11.9999 10.3265C11.5561 10.3265 11.1304 10.5028 10.8166 10.8166C10.5027 11.1305 10.3264 11.5561 10.3264 12C10.3264 12.4438 10.5027 12.8695 10.8166 13.1833L14.6499 17L10.8166 20.8166C10.6603 20.9716 10.5364 21.1559 10.4517 21.359C10.3671 21.5621 10.3236 21.78 10.3236 22C10.3236 22.22 10.3671 22.4378 10.4517 22.6409C10.5364 22.844 10.6603 23.0284 10.8166 23.1833C10.9715 23.3395 11.1558 23.4635 11.3589 23.5481C11.562 23.6327 11.7799 23.6763 11.9999 23.6763C12.2199 23.6763 12.4377 23.6327 12.6408 23.5481C12.8439 23.4635 13.0283 23.3395 13.1832 23.1833L16.9999 19.35L20.8166 23.1833C20.9715 23.3395 21.1558 23.4635 21.3589 23.5481C21.562 23.6327 21.7799 23.6763 21.9999 23.6763C22.2199 23.6763 22.4377 23.6327 22.6408 23.5481C22.8439 23.4635 23.0283 23.3395 23.1832 23.1833C23.3394 23.0284 23.4634 22.844 23.548 22.6409C23.6327 22.4378 23.6762 22.22 23.6762 22C23.6762 21.78 23.6327 21.5621 23.548 21.359C23.4634 21.1559 23.3394 20.9716 23.1832 20.8166L19.3499 17L23.1832 13.1833C23.3394 13.0284 23.4634 12.844 23.548 12.6409C23.6327 12.4378 23.6762 12.22 23.6762 12C23.6762 11.78 23.6327 11.5621 23.548 11.359C23.4634 11.1559 23.3394 10.9716 23.1832 10.8166ZM28.7832 5.21665C27.2458 3.62481 25.4067 2.35511 23.3733 1.48162C21.3399 0.60814 19.1529 0.148369 16.9399 0.129139C14.7269 0.109909 12.5323 0.531604 10.484 1.36962C8.43571 2.20763 6.57485 3.44519 5.00997 5.01006C3.44509 6.57494 2.20754 8.43581 1.36953 10.4841C0.531512 12.5324 0.109817 14.727 0.129047 16.94C0.148278 19.153 0.608048 21.34 1.48153 23.3734C2.35501 25.4068 3.62472 27.2459 5.21655 28.7833C6.754 30.3752 8.59308 31.6449 10.6265 32.5183C12.6599 33.3918 14.8469 33.8516 17.0599 33.8708C19.2729 33.8901 21.4675 33.4684 23.5158 32.6303C25.5641 31.7923 27.4249 30.5548 28.9898 28.9899C30.5547 27.425 31.7922 25.5642 32.6303 23.5159C33.4683 21.4676 33.89 19.2729 33.8707 17.06C33.8515 14.847 33.3917 12.66 32.5182 10.6266C31.6448 8.59317 30.3751 6.75409 28.7832 5.21665ZM26.4332 26.4333C24.2533 28.6157 21.3841 29.9747 18.3145 30.2788C15.245 30.583 12.1649 29.8134 9.59909 28.1013C7.03328 26.3891 5.14049 23.8403 4.24318 20.8891C3.34587 17.9379 3.49956 14.7669 4.67808 11.9163C5.85659 9.06569 7.98701 6.71189 10.7064 5.25592C13.4257 3.79994 16.5658 3.33186 19.5916 3.93143C22.6173 4.53101 25.3416 6.16113 27.3003 8.54408C29.2589 10.927 30.3308 13.9154 30.3332 17C30.3392 18.7521 29.9975 20.4881 29.3281 22.1073C28.6587 23.7265 27.6747 25.1969 26.4332 26.4333Z"
        fill="#ffffff"
    />
</svg>
    