<svg width="327" height="131" viewBox="0 0 327 131" fill="none" xmlns="http://www.w3.org/2000/svg">
<path d="M9.00932 125.94C9.00932 128.572 8.35032 129.231 5.71832 129.231H4.76732C2.13432 129.231 1.47632 128.572 1.47632 125.94V106.338C1.47632 96.9034 6.44932 92.1504 16.3223 92.1504C21.6613 92.1504 25.3193 93.9054 27.2933 97.4894C29.2683 93.9054 32.9253 92.1504 38.2643 92.1504C48.4303 92.1504 53.0383 96.9034 53.0383 106.338V125.94C53.0383 128.572 52.3803 129.231 49.7463 129.231H48.7963C46.1633 129.231 45.5053 128.572 45.5053 125.94V106.338C45.5053 101.146 43.7493 99.1714 38.2643 99.1714C32.7783 99.1714 30.8773 101.292 30.8773 106.338V125.94C30.8773 128.572 30.2193 129.231 27.5863 129.231H26.8543C24.2223 129.231 23.5633 128.572 23.5633 125.94V106.338C23.5633 101.146 21.8083 99.1714 16.3223 99.1714C10.8373 99.1714 9.00932 101.146 9.00932 106.338V125.94Z" fill="white"/>
<path d="M82.1394 113.433H74.0944C69.0484 113.433 66.7074 114.897 66.7074 118.626C66.7074 122.356 69.1944 123.673 73.8754 123.673C79.7264 123.673 82.1394 122.356 82.1394 117.968V113.433ZM89.5994 118.334C89.5994 126.453 84.8454 130.036 74.0214 130.036C64.1474 130.036 59.1744 126.307 59.1744 118.773C59.1744 111.093 64.2204 107.729 74.0944 107.729H82.1394V104.145C82.1394 99.9756 79.5794 98.5856 73.5094 98.5856C70.5834 98.5856 68.0244 98.8056 65.8294 99.2446C63.7084 99.6096 63.1234 99.1716 63.1234 96.9036V95.8806C63.1234 93.7596 63.7084 93.1006 65.7564 92.7346C68.1704 92.3696 70.6564 92.1506 73.0704 92.1506C83.9674 92.1506 89.5994 95.6616 89.5994 104.145V118.334Z" fill="white"/>
<path d="M95.7385 124.258C95.7385 121.698 96.3235 121.113 98.6635 121.698C102.175 122.649 105.759 123.088 109.342 123.088C114.316 123.088 116.145 122.284 116.145 119.944C116.145 118.113 115.193 117.237 111.464 115.555L103.564 112.044C98.3715 109.776 96.3235 107.29 96.3235 102.097C96.3235 95.2958 100.639 92.1508 110.293 92.1508C113.292 92.1508 116.145 92.5168 118.777 93.2468C121.41 94.0508 121.849 94.5638 121.849 96.9038V97.7818C121.849 100.342 121.191 100.926 118.851 100.268C116.145 99.4638 113.292 99.0978 110.147 99.0978C105.467 99.0978 103.711 99.9758 103.711 102.097C103.711 103.853 104.515 104.657 107.149 105.827L115.632 109.484C121.191 111.824 123.458 114.53 123.458 119.796C123.458 126.817 118.924 130.035 108.684 130.035C105.174 130.035 101.809 129.597 98.6635 128.793C96.2505 128.135 95.7385 127.549 95.7385 125.209V124.258Z" fill="white"/>
<path d="M151.831 113.433H143.786C138.74 113.433 136.399 114.897 136.399 118.626C136.399 122.356 138.886 123.673 143.566 123.673C149.418 123.673 151.831 122.356 151.831 117.968V113.433ZM159.291 118.334C159.291 126.453 154.537 130.036 143.713 130.036C133.839 130.036 128.866 126.307 128.866 118.773C128.866 111.093 133.912 107.729 143.786 107.729H151.831V104.145C151.831 99.9756 149.271 98.5856 143.201 98.5856C140.275 98.5856 137.716 98.8056 135.521 99.2446C133.401 99.6096 132.815 99.1716 132.815 96.9036V95.8806C132.815 93.7596 133.401 93.1006 135.448 92.7346C137.862 92.3696 140.348 92.1506 142.762 92.1506C153.659 92.1506 159.291 95.6616 159.291 104.145V118.334Z" fill="white"/>
<path d="M173.988 125.94C173.988 128.572 173.329 129.231 170.697 129.231H169.746C167.113 129.231 166.455 128.572 166.455 125.94V105.095C166.455 96.4654 171.062 92.1504 180.277 92.1504C181.009 92.1504 181.521 92.1504 181.74 92.2234C184.154 92.5164 184.812 93.1014 184.812 95.6614V96.6854C184.812 99.0984 184.3 99.6094 181.74 99.2444C181.521 99.1714 181.009 99.1714 180.277 99.1714C175.524 99.1714 173.988 101 173.988 105.607V125.94Z" fill="white"/>
<path d="M187.223 96.685C187.223 94.637 187.735 94.051 189.71 93.686L193.586 92.955L194.463 86.08C194.756 83.959 195.341 83.447 197.462 83.447H198.413C200.534 83.447 201.046 83.959 201.046 86.08V92.955H211.285C213.699 92.955 214.358 93.467 214.358 96.027V96.904C214.358 99.464 213.699 99.976 211.285 99.976H201.046V116.579C201.046 120.82 202.948 122.942 206.751 122.942C208.945 122.942 210.919 122.722 212.675 122.284C215.088 121.771 215.674 122.284 215.674 124.842V125.721C215.674 128.135 215.088 128.865 212.675 129.377C210.553 129.743 208.579 129.963 206.751 129.963C197.974 129.963 193.586 125.5 193.586 116.505V99.976H189.783C187.735 99.976 187.223 99.464 187.223 97.415V96.685Z" fill="#FFC20E"/>
<path d="M227.883 107.729H244.998V105.901C244.998 101.072 242.145 98.66 236.367 98.66C230.736 98.66 227.883 101.072 227.883 105.901V107.729ZM251.945 110.508C251.653 113.214 250.922 113.873 248.216 113.873H227.883V115.481C227.883 120.82 230.955 122.942 238.341 122.942C241.414 122.942 244.559 122.576 247.85 121.771C250.191 121.186 250.849 121.771 250.849 124.331V125.282C250.849 127.695 250.409 128.207 247.85 128.865C244.998 129.669 241.853 130.035 238.341 130.035C225.981 130.035 220.35 125.282 220.35 114.384V108.021C220.35 97.416 225.763 92.15 236.586 92.15C246.752 92.15 252.091 97.343 252.091 107.29C252.091 107.948 252.019 109.045 251.945 110.508Z" fill="#FFC20E"/>
<path d="M258.523 107.509C258.523 97.7813 264.374 92.1503 275.418 92.1503C277.32 92.1503 279.221 92.3693 281.123 92.8813C283.536 93.4673 284.049 94.1253 284.049 96.5393V97.4893C284.049 100.05 283.317 100.561 280.977 99.9023C279.587 99.3903 277.758 99.1723 275.564 99.1723C268.543 99.1723 266.056 101.438 266.056 107.583V114.457C266.056 120.82 268.763 122.942 276.076 122.942C277.466 122.942 279.368 122.721 281.709 122.283C284.049 121.771 284.707 122.356 284.707 124.77V125.647C284.707 127.987 284.049 128.719 281.635 129.304C279.66 129.815 277.686 130.035 275.711 130.035C264.228 130.035 258.523 124.916 258.523 114.676V107.509Z" fill="#FFC20E"/>
<path d="M290.846 81.3262C290.846 78.6922 291.504 78.0342 294.137 78.0342H295.087C297.721 78.0342 298.379 78.6922 298.379 81.3262V96.6852C300.647 93.6862 304.449 92.1502 309.715 92.1502C317.907 92.1502 322.661 96.3192 322.661 104.803V125.94C322.661 128.573 322.003 129.231 319.371 129.231H318.419C315.786 129.231 315.128 128.573 315.128 125.94V105.973C315.128 101.22 312.86 99.1722 307.375 99.1722C301.305 99.1722 298.379 101.878 298.379 108.387V125.94C298.379 128.573 297.721 129.231 295.087 129.231H294.137C291.504 129.231 290.846 128.573 290.846 125.94V81.3262Z" fill="#FFC20E"/>
<path d="M91.3017 51.1451H78.0347H67.8886C64.6116 51.1451 62.1907 50.2851 60.6297 48.5631C61.5146 46.3211 61.9566 43.9741 61.9566 41.5211C61.9566 36.3581 60.0967 32.2901 56.3767 29.3161C52.6567 26.3431 47.5187 24.8571 40.9627 24.8571H26.7587L50.7966 0.60305H37.4506L15.5207 24.8571L19.7346 34.2451H39.0117C42.6526 34.2451 45.5676 34.9631 47.7527 36.3971C49.9377 37.8321 51.0307 39.9571 51.0307 42.7731C51.0307 44.3381 50.6007 45.7601 49.7427 47.0371C48.8847 48.3171 47.7527 49.3201 46.3477 50.0501C44.9437 50.7801 43.4856 51.1451 41.9767 51.1451H12.1646H2.01865C1.70665 51.1451 1.49865 51.2361 1.39365 51.4191C1.29065 51.6031 1.23865 51.7711 1.23865 51.9281V59.7501C1.23865 59.9081 1.29065 60.0761 1.39365 60.2601C1.49865 60.4421 1.70665 60.5331 2.01865 60.5331H12.1646H43.4607C48.5067 60.5331 52.8256 58.7341 56.4156 55.1351C58.0276 56.9081 59.8887 58.2521 61.9957 59.1651C64.1026 60.0761 66.0667 60.5331 67.8876 60.5331H78.0347H102.15V21.7271H91.3017V51.1451Z" fill="white"/>
<path d="M109.954 5.21927H98.7164V15.0772H109.954V5.21927Z" fill="white"/>
<path d="M94.3463 5.21927H83.1074V15.0772H94.3463V5.21927Z" fill="white"/>
<path d="M114.481 58.499C114.481 61.054 114.116 63.049 113.388 64.485C112.659 65.918 111.566 66.95 110.11 67.575C108.653 68.201 106.65 68.696 104.101 69.062L108.472 78.841C113.466 78.267 117.537 76.377 120.686 73.169C123.833 69.961 125.407 64.966 125.407 58.187V21.727H114.481V58.499Z" fill="white"/>
<path d="M313.341 51.1451H300.385V30.882C302.101 30.517 303.766 30.334 305.38 30.334C311.727 30.334 314.901 33.9071 314.901 41.0531C314.901 44.1821 314.38 47.5451 313.341 51.1451ZM323.564 30.6861C321.795 27.634 319.31 25.2481 316.111 23.5261C312.912 21.806 309.204 20.945 304.99 20.945C301.4 20.945 296.221 21.4671 289.459 22.5101V51.1451H284.776C281.706 51.1451 279.455 50.9241 278.024 50.4801C276.593 50.0371 275.279 49.1631 274.083 47.8591C274.395 46.1901 274.553 44.8611 274.553 43.8691V18.4411H263.626V42.1481C263.626 45.1731 262.949 47.4291 261.597 48.9151C260.243 50.4021 258.526 51.1451 256.446 51.1451C254.311 51.1451 252.373 50.5331 250.63 49.3071C248.887 48.0821 248.017 46.2941 248.017 43.9471V21.7271H237.091V42.1481C237.091 44.8611 236.349 47.0371 234.866 48.6801C233.383 50.3231 231.6 51.1451 229.521 51.1451H224.681V21.7271H213.755V51.1451H205.95H195.805H185.659H175.513H165.367H155.221H153.66C151.683 51.1451 150.187 50.5841 149.173 49.4631C148.158 48.3421 147.651 46.4251 147.651 43.7121V0.60305H136.725V45.4341C136.725 50.0241 137.896 53.6871 140.237 56.4261C142.578 59.1651 145.959 60.5331 150.383 60.5331H155.221H165.367H175.513H185.659H195.805H205.95H232.798C237.48 60.5331 241.279 58.7861 244.192 55.2921C245.648 57.0131 247.431 58.3171 249.538 59.2031C251.645 60.0901 254.467 60.5331 258.007 60.5331C260.711 60.5331 263.196 59.9861 265.46 58.8911C267.722 57.7951 269.582 56.2831 271.04 54.3531C272.86 56.6491 274.773 58.2391 276.776 59.1251C278.779 60.0111 281.446 60.4811 284.776 60.5331H321.535C324.657 52.3461 326.217 45.8001 326.217 40.8951C326.217 37.1411 325.333 33.7371 323.564 30.6861Z" fill="white"/>
<path d="M0.0371094 50.9892H21.3501V81.2372L10.6941 68.4422L0.0371094 81.2372V50.9892Z" fill="#FFC20E"/>
</svg>
