<svg width="170" height="163" viewBox="0 0 170 163" fill="none" xmlns="http://www.w3.org/2000/svg">
    <path d="M162.026 81.5693C162.026 126.213 125.835 162.405 81.1909 162.405C36.5468 162.405 0.355469 126.213 0.355469 81.5693C0.355469 36.9252 36.5468 0.733902 81.1909 0.733902C125.835 0.733902 162.026 36.9252 162.026 81.5693Z" fill="#F5F6F8"/>
    <path d="M141.73 81.5693C141.73 115.004 114.626 142.108 81.1916 142.108C47.757 142.108 20.6533 115.004 20.6533 81.5693C20.6533 48.1347 47.757 21.031 81.1916 21.031C114.626 21.031 141.73 48.1347 141.73 81.5693Z" stroke="#F5BD2D" stroke-width="14.8" stroke-miterlimit="10"/>
    <path d="M135.185 81.5693C135.185 111.389 111.011 135.563 81.191 135.563C51.3712 135.563 27.1973 111.389 27.1973 81.5693C27.1973 51.7495 51.3712 27.5759 81.191 27.5759C111.011 27.5759 135.185 51.7495 135.185 81.5693Z" fill="#F5BD2D"/>
    <mask id="mask0_0_1" style="mask-type:alpha" maskUnits="userSpaceOnUse" x="53" y="62" width="57" height="39">
    <path d="M73.5174 100.867C72.0245 100.867 70.5363 100.275 69.4323 99.1064L54.8245 83.6391C52.6944 81.3833 52.796 77.8281 55.0511 75.698C57.3065 73.5685 60.8621 73.6694 62.9923 75.9249L73.8072 87.376L99.6844 63.7409C101.976 61.6485 105.529 61.8097 107.621 64.1003C109.713 66.391 109.552 69.9444 107.262 72.0365L77.3045 99.3973C76.2282 100.38 74.871 100.867 73.5174 100.867Z" fill="white"/>
    </mask>
    <g mask="url(#mask0_0_1)">
    <path d="M114.852 58.2696L113.663 107.982L41.8121 106.264L43.001 56.5512L114.852 58.2696Z" fill="white"/>
    </g>
    <mask id="mask1_0_1" style="mask-type:luminance" maskUnits="userSpaceOnUse" x="1" y="17" width="24" height="24">
    <path d="M1.03418 17.0913H24.2998V40.3569H1.03418V17.0913Z" fill="white"/>
    </mask>
    <g mask="url(#mask1_0_1)">
    <path d="M17.9946 24.197C18.1593 24.1145 18.3115 24.3275 18.1807 24.4573C16.98 25.6487 14.8175 27.9199 14.6839 28.9485C14.5511 29.971 16.043 32.6925 16.9021 34.1576C16.9957 34.3172 16.7925 34.4839 16.6547 34.3605C15.4341 33.2667 13.191 31.3697 12.1783 31.2382C11.1123 31.0997 8.22809 32.5046 6.83251 33.2268C6.67435 33.3087 6.51896 33.1128 6.63498 32.9777C7.64439 31.8022 9.63116 29.3727 9.76914 28.3102C9.9077 27.2433 8.59592 24.3676 7.92271 22.9796C7.84533 22.8201 8.04404 22.6702 8.17643 22.7882C9.3392 23.8236 11.7844 25.8988 12.8537 26.0377C13.8713 26.1698 16.5421 24.9245 17.9946 24.197Z" fill="#F5BD2D"/>
    </g>
    <mask id="mask2_0_1" style="mask-type:luminance" maskUnits="userSpaceOnUse" x="138" y="79" width="32" height="32">
    <path d="M138.617 79.6355H169.638V110.656H138.617V79.6355Z" fill="white"/>
    </mask>
    <g mask="url(#mask2_0_1)">
    <path d="M159.434 87.6173C159.616 87.46 159.877 87.681 159.753 87.8873C158.614 89.7819 156.603 93.353 156.764 94.6989C156.924 96.0368 159.687 99.0059 161.246 100.586C161.415 100.758 161.212 101.035 160.997 100.923C159.1 99.9287 155.65 98.2451 154.325 98.4035C152.93 98.5701 149.727 101.275 148.191 102.638C148.016 102.792 147.757 102.594 147.86 102.386C148.762 100.573 150.499 96.8576 150.333 95.4673C150.166 94.0712 147.582 90.849 146.284 89.3068C146.135 89.1295 146.338 88.8759 146.544 88.9828C148.349 89.9214 152.113 91.7658 153.512 91.5986C154.843 91.4395 157.827 89.005 159.434 87.6173Z" fill="#F5BD2D"/>
    </g>
    <mask id="mask3_0_1" style="mask-type:luminance" maskUnits="userSpaceOnUse" x="120" y="124" width="19" height="18">
    <path d="M120.88 124.012H138.546V141.678H120.88V124.012Z" fill="white"/>
    </mask>
    <g mask="url(#mask3_0_1)">
    <path d="M130.97 127.933C131.032 127.819 131.207 127.881 131.184 128.01C130.968 129.19 130.629 131.39 130.968 132.044C131.306 132.693 133.278 133.673 134.373 134.178C134.492 134.233 134.441 134.412 134.311 134.396C133.157 134.254 131.081 134.059 130.438 134.393C129.761 134.745 128.65 136.733 128.131 137.72C128.072 137.831 127.902 137.78 127.914 137.655C128.026 136.561 128.198 134.34 127.847 133.665C127.495 132.987 125.565 131.844 124.61 131.309C124.5 131.247 124.555 131.08 124.68 131.095C125.777 131.226 128.043 131.443 128.722 131.09C129.368 130.755 130.419 128.946 130.97 127.933Z" fill="#F5BD2D"/>
    </g>
    <mask id="mask4_0_1" style="mask-type:luminance" maskUnits="userSpaceOnUse" x="125" y="5" width="24" height="24">
    <path d="M125.62 5.60208H148.886V28.8677H125.62V5.60208Z" fill="white"/>
    </mask>
    <g mask="url(#mask4_0_1)">
    <path d="M135.466 11.3257C135.459 11.1701 135.675 11.1249 135.731 11.2703C136.244 12.6054 137.265 15.0526 138.016 15.5064C138.762 15.9574 141.376 15.73 142.803 15.5642C142.958 15.5461 143.018 15.7602 142.875 15.8248C141.613 16.3968 139.381 17.4865 138.934 18.2254C138.464 19.0033 138.569 21.7139 138.652 23.04C138.662 23.1903 138.457 23.2438 138.392 23.108C137.826 21.9264 136.623 19.5612 135.848 19.0925C135.069 18.6218 132.397 18.6574 131.093 18.7056C130.944 18.7111 130.895 18.5063 131.032 18.444C132.229 17.8968 134.668 16.7114 135.14 15.9312C135.589 15.1887 135.535 12.6976 135.466 11.3257Z" fill="#F5BD2D"/>
    </g>
    <mask id="mask5_0_1" style="mask-type:luminance" maskUnits="userSpaceOnUse" x="1" y="117" width="40" height="39">
    <path d="M1.89648 117.047H40.6725V155.823H1.89648V117.047Z" fill="white"/>
    </mask>
    <g mask="url(#mask5_0_1)">
    <path d="M12.459 127.799C12.2918 127.539 12.6198 127.247 12.8598 127.442C15.0632 129.231 19.2409 132.431 20.981 132.469C22.7107 132.507 26.9834 129.529 29.2734 127.832C29.5228 127.647 29.8374 127.957 29.6562 128.209C28.0507 130.441 25.2886 134.525 25.2511 136.238C25.2117 138.041 28.0737 142.601 29.5293 144.799C29.6943 145.049 29.3955 145.343 29.1492 145.174C27.0066 143.701 22.5965 140.823 20.799 140.783C18.9941 140.744 14.4319 143.449 12.2372 144.821C11.985 144.979 11.6993 144.674 11.8722 144.432C13.3908 142.306 16.4138 137.854 16.4534 136.045C16.4911 134.324 13.9337 130.092 12.459 127.799Z" fill="#F5BD2D"/>
    </g>
    </svg>
    